# xmcd
# Copyright (C) 1995-1998 Ti Kan
#
# Track frame offsets:
#       150
#       53026
#       171368
#
# Disc length: 3674 seconds
#
# Revision: 0
# Processed by: cddbd v1.5.2PL0 Copyright (c) Steve Scherf et al.
# Submitted via: CD-Import v1.0
#
DISCID=200e5803
DTITLE=Eugen Wälti - Electropique
DYEAR=1900
DGENRE=
TTITLE0=Electropique_1
TTITLE1=Electropique_2
TTITLE2=Electropique_3
EXTD=
EXTT0=
EXTT1=
EXTT2=
PLAYORDER=
